<svg xmlns="http://www.w3.org/2000/svg" xmlns:xlink="http://www.w3.org/1999/xlink" contentStyleType="text/css" height="558px" preserveAspectRatio="none" style="width:774px;height:558px;background:#FFFFFF;" version="1.1" viewBox="0 0 774 558" width="774px" zoomAndPan="magnify"><defs/><g><!--cluster flow--><g id="cluster_flow"><rect fill="#FFFFFF" height="254.06" rx="2.5" ry="2.5" style="stroke:#000000;stroke-width:1;" width="261" x="12" y="85.01"/><text fill="#000000" font-family="Verdana" font-size="14" font-weight="bold" lengthAdjust="spacing" textLength="78.7021" x="103.1489" y="101.0852">Data Flow</text></g><!--cluster script--><g id="cluster_script"><rect fill="#FFFFFF" height="540.1" rx="2.5" ry="2.5" style="stroke:#000000;stroke-width:1;" width="471" x="297" y="12"/><path d="M473.8944,18.1813 C473.2527,18.1813 472.7277,18.7063 472.7277,19.348 L472.7277,25.7646 C472.7277,26.0913 472.471,26.348 472.1444,26.348 C471.8177,26.348 471.561,26.0913 471.561,25.7646 L471.561,24.0146 L470.3944,24.0146 L470.3944,26.348 C470.3944,26.9896 470.9194,27.5146 471.561,27.5146 L477.3944,27.5146 C478.036,27.5146 478.561,26.9896 478.561,26.348 L478.561,22.848 L473.8944,22.848 L473.8944,19.9313 C473.8944,19.6046 474.151,19.348 474.4777,19.348 C474.8044,19.348 475.061,19.6046 475.061,19.9313 L475.061,21.6813 L479.7277,21.6813 L479.7277,19.348 C479.7277,18.7063 479.2027,18.1813 478.561,18.1813 L473.8944,18.1813 " fill="#000000" style="stroke:;stroke-width:0;stroke-dasharray:;"/><text fill="#000000" font-family="Verdana" font-size="14" font-weight="bold" lengthAdjust="spacing" textLength="114.8779" x="480.7277" y="28.0752">GmailDriveETL</text></g><!--cluster klass--><g id="cluster_klass"><rect fill="#FFFFFF" height="472.1" rx="2.5" ry="2.5" style="stroke:#000000;stroke-width:1;" width="423" x="321" y="56"/><text fill="#000000" font-family="Verdana" font-size="14" font-weight="bold" lengthAdjust="spacing" textLength="4.7852" x="530.1074" y="72.0752">&#160;</text></g><!--entity gmail--><g id="elem_gmail"><rect fill="#FFFFFF" height="37.0146" rx="2.5" ry="2.5" style="stroke:#000000;stroke-width:1;" width="71.8978" x="98.05" y="121.01"/><path d="M109.05,136.358 L109.05,137.5246 L113.7167,139.858 L118.3833,137.5246 L118.3833,136.358 L109.05,136.358 M109.05,138.6913 L109.05,143.358 L118.3833,143.358 L118.3833,138.6913 L113.7167,141.0246 L109.05,138.6913 " fill="#000000" style="stroke:;stroke-width:0;stroke-dasharray:;"/><text fill="#000000" font-family="Verdana" font-size="14" lengthAdjust="spacing" textLength="40.5645" x="119.3833" y="145.0852">Gmail</text></g><!--entity spreadsheet--><g id="elem_spreadsheet"><rect fill="#FFFFFF" height="37.0146" rx="2.5" ry="2.5" style="stroke:#000000;stroke-width:1;" width="119.4212" x="28.29" y="286.06"/><path d="M40.165,300.2413 C39.6867,300.2413 39.29,300.638 39.29,301.1163 L39.29,307.533 C39.29,308.0113 39.6867,308.408 40.165,308.408 L47.7483,308.408 C48.2267,308.408 48.6233,308.0113 48.6233,307.533 L48.6233,301.1163 C48.6233,300.638 48.2267,300.2413 47.7483,300.2413 L40.165,300.2413 M40.4567,301.408 L41.6233,301.408 L41.6233,302.5746 L40.4567,302.5746 L40.4567,301.408 M42.79,301.408 L47.4567,301.408 L47.4567,302.5746 L42.79,302.5746 L42.79,301.408 M40.4567,303.7413 L41.6233,303.7413 L41.6233,304.908 L40.4567,304.908 L40.4567,303.7413 M42.79,303.7413 L47.4567,303.7413 L47.4567,304.908 L42.79,304.908 L42.79,303.7413 M40.4567,306.0746 L41.6233,306.0746 L41.6233,307.2413 L40.4567,307.2413 L40.4567,306.0746 M42.79,306.0746 L47.4567,306.0746 L47.4567,307.2413 L42.79,307.2413 L42.79,306.0746 " fill="#000000" style="stroke:;stroke-width:0;stroke-dasharray:;"/><text fill="#000000" font-family="Verdana" font-size="14" lengthAdjust="spacing" textLength="88.0879" x="49.6233" y="310.1352">Spreadsheet</text></g><!--entity folder--><g id="elem_folder"><rect fill="#FFFFFF" height="37.0146" rx="2.5" ry="2.5" style="stroke:#000000;stroke-width:1;" width="74.7552" x="182.62" y="286.06"/><path d="M193.62,300.2413 L193.62,302.5746 L202.9533,302.5746 L202.9533,301.408 L197.12,301.408 L197.12,300.2413 L193.62,300.2413 M193.62,303.7413 L193.62,308.9913 C193.62,309.318 193.8767,309.5746 194.2033,309.5746 L202.37,309.5746 C202.6967,309.5746 202.9533,309.318 202.9533,308.9913 L202.9533,303.7413 L193.62,303.7413 " fill="#000000" style="stroke:;stroke-width:0;stroke-dasharray:;"/><text fill="#000000" font-family="Verdana" font-size="14" lengthAdjust="spacing" textLength="43.4219" x="203.9533" y="310.1352">Folder</text></g><!--class GmailExtractor--><g id="elem_GmailExtractor"><rect codeLine="18" fill="#FFFFFF" height="95.0439" id="GmailExtractor" rx="2.5" ry="2.5" style="stroke:#000000;stroke-width:1;" width="278.9707" x="368.51" y="257.04"/><ellipse cx="451.8035" cy="271.04" fill="#FFFFFF" rx="9" ry="9" style="stroke:#000000;stroke-width:1;"/><path d="M454.2766,277.1831 Q453.6955,277.4819 453.0564,277.6313 Q452.4172,277.7807 451.7117,277.7807 Q449.2048,277.7807 447.885,276.1289 Q446.5652,274.477 446.5652,271.3559 Q446.5652,268.2265 447.885,266.5747 Q449.2048,264.9228 451.7117,264.9228 Q452.4172,264.9228 453.0647,265.0722 Q453.7121,265.2216 454.2766,265.5205 L454.2766,268.2431 Q453.6457,267.6621 453.0522,267.3923 Q452.4587,267.1225 451.8279,267.1225 Q450.4831,267.1225 449.7983,268.1892 Q449.1135,269.2558 449.1135,271.3559 Q449.1135,273.4477 449.7983,274.5144 Q450.4831,275.581 451.8279,275.581 Q452.4587,275.581 453.0522,275.3112 Q453.6457,275.0415 454.2766,274.4604 Z " fill="#000000"/><text fill="#000000" font-family="Verdana" font-size="14" lengthAdjust="spacing" textLength="104.8838" x="469.3035" y="276.6079">GmailExtractor</text><line style="stroke:#000000;stroke-width:1;" x1="369.51" x2="646.4807" y1="285.04" y2="285.04"/><text fill="#000000" font-family="Verdana" font-size="14" lengthAdjust="spacing" textLength="166.0518" x="374.51" y="303.1152">sheetStore: SheetStore</text><text fill="#000000" font-family="Verdana" font-size="14" lengthAdjust="spacing" textLength="170.7959" x="374.51" y="320.1298">folderStore: FolderStore</text><line style="stroke:#000000;stroke-width:1;" x1="369.51" x2="646.4807" y1="327.0693" y2="327.0693"/><text fill="#000000" font-family="Verdana" font-size="14" lengthAdjust="spacing" textLength="137.9219" x="374.51" y="345.1445">extractProcess() &lt;-</text><text fill="#000000" font-family="Verdana" font-size="14" font-weight="bold" lengthAdjust="spacing" textLength="124.127" x="517.3538" y="345.1445">give as callback</text></g><!--class SheetStore--><g id="elem_SheetStore"><rect codeLine="23" fill="#FFFFFF" height="95.0439" id="SheetStore" rx="2.5" ry="2.5" style="stroke:#000000;stroke-width:1;" width="206.6533" x="521.67" y="92"/><ellipse cx="581.9845" cy="106" fill="#FFFFFF" rx="9" ry="9" style="stroke:#000000;stroke-width:1;"/><path d="M584.4576,112.1431 Q583.8765,112.4419 583.2374,112.5913 Q582.5982,112.7407 581.8927,112.7407 Q579.3858,112.7407 578.066,111.0889 Q576.7462,109.437 576.7462,106.3159 Q576.7462,103.1865 578.066,101.5347 Q579.3858,99.8828 581.8927,99.8828 Q582.5982,99.8828 583.2457,100.0322 Q583.8931,100.1816 584.4576,100.4805 L584.4576,103.2031 Q583.8267,102.6221 583.2332,102.3523 Q582.6397,102.0825 582.0089,102.0825 Q580.6641,102.0825 579.9793,103.1492 Q579.2945,104.2158 579.2945,106.3159 Q579.2945,108.4077 579.9793,109.4744 Q580.6641,110.541 582.0089,110.541 Q582.6397,110.541 583.2332,110.2712 Q583.8267,110.0015 584.4576,109.4204 Z " fill="#000000"/><text fill="#000000" font-family="Verdana" font-size="14" lengthAdjust="spacing" textLength="78.5244" x="599.4845" y="111.5679">SheetStore</text><line style="stroke:#000000;stroke-width:1;" x1="522.67" x2="727.3233" y1="120" y2="120"/><text fill="#000000" font-family="Verdana" font-size="14" lengthAdjust="spacing" textLength="194.6533" x="527.67" y="138.0752">spreadSheet : SpreadSheet</text><text fill="#000000" font-family="Verdana" font-size="14" lengthAdjust="spacing" textLength="190.6338" x="527.67" y="155.0898">sheet : SpreadSheet.Sheet</text><line style="stroke:#000000;stroke-width:1;" x1="522.67" x2="727.3233" y1="162.0293" y2="162.0293"/><text fill="#000000" font-family="Verdana" font-size="14" lengthAdjust="spacing" textLength="48.3369" x="527.67" y="180.1045">store()</text></g><!--class FolderStore--><g id="elem_FolderStore"><rect codeLine="28" fill="#FFFFFF" height="78.0293" id="FolderStore" rx="2.5" ry="2.5" style="stroke:#000000;stroke-width:1;" width="149.3203" x="337.34" y="100.5"/><ellipse cx="368.34" cy="114.5" fill="#FFFFFF" rx="9" ry="9" style="stroke:#000000;stroke-width:1;"/><path d="M370.8131,120.6431 Q370.2321,120.9419 369.5929,121.0913 Q368.9538,121.2407 368.2482,121.2407 Q365.7414,121.2407 364.4215,119.5889 Q363.1017,117.937 363.1017,114.8159 Q363.1017,111.6865 364.4215,110.0347 Q365.7414,108.3828 368.2482,108.3828 Q368.9538,108.3828 369.6012,108.5322 Q370.2487,108.6816 370.8131,108.9805 L370.8131,111.7031 Q370.1823,111.1221 369.5888,110.8523 Q368.9953,110.5825 368.3644,110.5825 Q367.0197,110.5825 366.3349,111.6492 Q365.6501,112.7158 365.6501,114.8159 Q365.6501,116.9077 366.3349,117.9744 Q367.0197,119.041 368.3644,119.041 Q368.9953,119.041 369.5888,118.7712 Q370.1823,118.5015 370.8131,117.9204 Z " fill="#000000"/><text fill="#000000" font-family="Verdana" font-size="14" lengthAdjust="spacing" textLength="81.3203" x="384.34" y="120.0679">FolderStore</text><line style="stroke:#000000;stroke-width:1;" x1="338.34" x2="485.6603" y1="128.5" y2="128.5"/><text fill="#000000" font-family="Verdana" font-size="14" lengthAdjust="spacing" textLength="137.3203" x="343.34" y="146.5752">folder: Drive.Folder</text><line style="stroke:#000000;stroke-width:1;" x1="338.34" x2="485.6603" y1="153.5146" y2="153.5146"/><text fill="#000000" font-family="Verdana" font-size="14" lengthAdjust="spacing" textLength="48.3369" x="343.34" y="171.5898">store()</text></g><!--entity extractProcess--><g id="elem_extractProcess"><rect fill="#FFFFFF" height="37.0146" rx="2.5" ry="2.5" style="stroke:#000000;stroke-width:1;" width="135.1855" x="370.41" y="475.09"/><text fill="#000000" font-family="Verdana" font-size="14" lengthAdjust="spacing" textLength="115.1855" x="380.41" y="499.1652">extractProcess()</text></g><!--entity filter--><g id="elem_filter"><rect fill="#FFFFFF" height="37.0146" rx="2.5" ry="2.5" style="stroke:#000000;stroke-width:1;" width="65.1514" x="540.42" y="475.09"/><text fill="#000000" font-family="Verdana" font-size="14" lengthAdjust="spacing" textLength="45.1514" x="550.42" y="499.1652">filter()</text></g><!--link gmail to spreadsheet--><g id="link_gmail_spreadsheet"><path codeLine="12" d="M128.99,158.28 C120.14,189.64 103.4801,248.7057 94.6301,280.0557 " fill="none" id="gmail-to-spreadsheet" style="stroke:#000000;stroke-width:1;"/><polygon fill="#000000" points="93,285.83,99.2947,278.2552,94.3584,281.0181,91.5956,276.0818,93,285.83" style="stroke:#000000;stroke-width:1;"/><path d="M120.88,218.04 L119.7967,219.1233 L121.9633,221.29 L123.0467,220.2067 L120.88,218.04 M118.7133,220.2067 L114.38,224.54 L114.38,226.7067 L116.5467,226.7067 L120.88,222.3733 L118.7133,220.2067 " fill="#000000" style="stroke:;stroke-width:0;stroke-dasharray:;"/></g><!--link gmail to folder--><g id="link_gmail_folder"><path codeLine="13" d="M143.37,158.28 C159.91,189.64 191.3115,249.1726 207.8415,280.5226 " fill="none" id="gmail-to-folder" style="stroke:#000000;stroke-width:1;"/><polygon fill="#000000" points="210.64,285.83,209.9806,276.0032,208.308,281.4072,202.904,279.7345,210.64,285.83" style="stroke:#000000;stroke-width:1;"/><path d="M181.58,218.04 L181.58,226.7067 L190.2467,226.7067 L190.2467,218.04 L181.58,218.04 M182.6633,219.1233 L189.1633,219.1233 L189.1633,222.3733 L188.08,221.29 L186.9967,222.3733 L189.1633,224.54 L189.1633,225.6233 L188.08,225.6233 L183.7467,221.29 L182.6633,222.3733 L182.6633,219.1233 " fill="#000000" style="stroke:;stroke-width:0;stroke-dasharray:;"/></g><!--link SheetStore to GmailExtractor--><g id="link_SheetStore_GmailExtractor"><path codeLine="37" d="M591.47,187.24 C575.87,208.98 564.3556,225.03 548.7356,246.8 " fill="none" id="SheetStore-to-GmailExtractor" style="stroke:#000000;stroke-width:1;"/><polygon fill="#000000" points="541.74,256.55,548.4878,254.0069,548.7356,246.8,541.9878,249.3432,541.74,256.55" style="stroke:#000000;stroke-width:1;"/></g><!--link FolderStore to GmailExtractor--><g id="link_FolderStore_GmailExtractor"><path codeLine="38" d="M434.51,178.75 C448.2,201.99 459.6906,221.5198 474.2306,246.2098 " fill="none" id="FolderStore-to-GmailExtractor" style="stroke:#000000;stroke-width:1;"/><polygon fill="#000000" points="480.32,256.55,480.722,249.3501,474.2306,246.2098,473.8286,253.4097,480.32,256.55" style="stroke:#000000;stroke-width:1;"/></g><!--reverse link GmailExtractor to extractProcess--><g id="link_GmailExtractor_extractProcess"><path codeLine="39" d="M486.3112,363.5177 C471.4012,403.3277 455,447.16 444.59,474.99 " fill="none" id="GmailExtractor-backto-extractProcess" style="stroke:#000000;stroke-width:1;"/><polygon fill="#000000" points="490.52,352.28,484.6697,356.4959,486.3112,363.5177,492.1615,359.3018,490.52,352.28" style="stroke:#000000;stroke-width:1;"/></g><!--reverse link GmailExtractor to filter--><g id="link_GmailExtractor_filter"><path codeLine="40" d="M528.1705,363.6146 C542.0105,403.4246 557.21,447.16 566.88,474.99 " fill="none" id="GmailExtractor-backto-filter" style="stroke:#000000;stroke-width:1;stroke-dasharray:7.0,7.0;"/><polygon fill="#000000" points="524.23,352.28,522.422,359.2608,528.1705,363.6146,529.9784,356.6338,524.23,352.28" style="stroke:#000000;stroke-width:1;"/></g><!--SRC=[TLBBRiCW4BpxAxOvL8ab_05Hv5CUbnugkJz0oSP1mGy1JIDL_lVYXSOsTayipCpkx2ulzeeLGgkuh9E4AzLyL_8Xwp99D0hBwr8XhFRSSZWwR0NSmCK5y9C038pTAzPtL4sBJAZ6u3a_LLogdbrIqDExI69QZVniheWsBuQu5usWHUcbKMVK-P4EykIZFwulobW-oRHroXPh8LK-uGHn3ykAbvWdtRXzvrHesLhVqrxBEnu-tiWclKUpM05DwQQuCGG128f9VdXOpOLjT800o5lXNd0BnJCEeBSMqEDm2J3wRE-w4MZCUWCx1cbQEeUz1U7s-Sd5BKs9tesy38K67pIf8aog66vZdrCac-1zjlLcLcha-bdBjxK56cRc6V-c6OqsxfScFNqCDMRIYrGMTP3uovDAHxIUb7snU1zBb7WfCmvZaSD5MfPbmHLzuUuN]--></g></svg>